<?xml version="1.0" standalone="no"?><!DOCTYPE svg PUBLIC "-//W3C//DTD SVG 1.1//EN" "http://www.w3.org/Graphics/SVG/1.1/DTD/svg11.dtd"><svg t="1754992554051" class="icon" viewBox="0 0 1024 1024" version="1.1" xmlns="http://www.w3.org/2000/svg" p-id="91016" xmlns:xlink="http://www.w3.org/1999/xlink" width="128" height="128"><path d="M546.4 700.7V765h96.2v198.2H385.9V764.9h96.2v-64.3H193.5c-71 0-128.5-57.5-128.5-128.1V192.8c0-71 57.5-128.5 128.1-128.5h642.3c71 0 128.5 57.5 128.5 128.1v379.8c0 71-57.5 128.5-128.1 128.5H546.4z m353.2-482.3c0-49.4-34.6-89.9-76.9-89.9H206.1c-42.7 0-76.9 40.5-76.9 89.9v328.1c0 49.4 34.6 89.9 76.9 89.9h616.2c42.7 0 76.9-40.5 76.9-89.9l0.4-328.1z m0 673.7H706.8v-64.3h192.8s31.9 0 31.9 31.9c0.5 32.4-31.9 32.4-31.9 32.4z m-770.3 0h192.8v-64.3H129.3s-31.9 0-31.9 31.9c-0.5 32.4 31.9 32.4 31.9 32.4z m671.5-620.2l-289 285.4-196-192.4 50.8-49.9 145.2 142.5L750 222l50.8 49.9z" fill="#35B030" p-id="91017"></path></svg>