<?xml version="1.0" standalone="no"?><!DOCTYPE svg PUBLIC "-//W3C//DTD SVG 1.1//EN" "http://www.w3.org/Graphics/SVG/1.1/DTD/svg11.dtd"><svg t="1754877440545" class="icon" viewBox="0 0 1024 1024" version="1.1" xmlns="http://www.w3.org/2000/svg" p-id="33393" width="128" height="128" xmlns:xlink="http://www.w3.org/1999/xlink"><path d="M896 64a64 64 0 0 1 63.552 56.512L960 128v768a64 64 0 0 1-56.512 63.552L896 960H128a64 64 0 0 1-63.552-56.512L64 896V576a32 32 0 0 1 63.488-5.76L128 576v320h768V128H576a32 32 0 0 1-5.76-63.488L576 64h320zM552.832 508.288l4.48 3.712L768 722.688V608a32 32 0 0 1 26.24-31.488L800 576a32 32 0 0 1 31.488 26.24L832 608V832H608a32 32 0 0 1-5.76-63.488L608 768h114.816L512 557.248a32 32 0 0 1-3.712-40.832L512 512a32 32 0 0 1 40.832-3.712zM384 64a64 64 0 0 1 64 64v256a64 64 0 0 1-64 64H128a64 64 0 0 1-64-64V128a64 64 0 0 1 64-64h256z m0 64H128v256h256V128z" fill="#515151" p-id="33394"></path></svg>