<?xml version="1.0" standalone="no"?><!DOCTYPE svg PUBLIC "-//W3C//DTD SVG 1.1//EN" "http://www.w3.org/Graphics/SVG/1.1/DTD/svg11.dtd"><svg t="1754968354660" class="icon" viewBox="0 0 1024 1024" version="1.1" xmlns="http://www.w3.org/2000/svg" p-id="66317" xmlns:xlink="http://www.w3.org/1999/xlink" width="128" height="128"><path d="M983.72352 942.08H552.278187v-170.410667h305.365333c75.690667 0 137.6-62.464 137.6-138.752V138.752C995.24352 62.421333 933.334187 0 857.686187 0H166.358187C90.66752 0 28.758187 62.421333 28.758187 138.752v494.122667c0 76.330667 61.909333 138.752 137.6 138.752h305.408v170.410666H40.278187A40.704 40.704 0 0 0 0.000853 983.04c0 22.613333 18.048 40.96 40.277334 40.96h943.445333c22.229333 0 40.277333-18.346667 40.277333-40.96s-18.048-40.96-40.277333-40.96zM250.240853 601.216V170.410667c0-26.709333 21.674667-48.597333 48.170667-48.597334h427.178667c26.496 0 48.170667 21.845333 48.170666 48.597334v430.805333c0 26.709333-21.674667 48.597333-48.170666 48.597333H298.41152a48.512 48.512 0 0 1-48.170667-48.597333z" fill="#3697D4" p-id="66318"></path><path d="M730.15552 214.4c0-26.709333-21.674667-48.597333-48.170667-48.597333H342.016853c-26.496 0-48.170667 21.845333-48.170666 48.597333v236.032s72.277333-71.509333 181.333333-5.504c0 0 43.648 43.989333 87.253333 0 0 0 101.802667-102.357333 167.68-69.461333V214.4zM387.926187 334.933333a65.706667 65.706667 0 0 1-65.450667-66.005333c0-36.437333 29.312-66.005333 65.450667-66.005333s65.450667 29.568 65.450666 66.005333A65.706667 65.706667 0 0 1 387.926187 334.933333z" fill="#3697D4" p-id="66319"></path></svg>