<?xml version="1.0" standalone="no"?><!DOCTYPE svg PUBLIC "-//W3C//DTD SVG 1.1//EN" "http://www.w3.org/Graphics/SVG/1.1/DTD/svg11.dtd"><svg t="1755155606809" class="icon" viewBox="0 0 1024 1024" version="1.1" xmlns="http://www.w3.org/2000/svg" p-id="61746" xmlns:xlink="http://www.w3.org/1999/xlink" width="128" height="128"><path d="M213.333333 128h341.333334l128 128 128 128v512H213.333333V128z" fill="#FFFFFF" p-id="61747"></path><path d="M554.666667 128l17.066666-17.066667-4.266666-4.266666H554.666667V128zM213.333333 128v-21.333333h-21.333333V128H213.333333z m597.333334 256h21.333333v-8.533333l-4.266667-4.266667-17.066666 12.8z m0 512v21.333333h21.333333V896H810.666667zM213.333333 896h-21.333333v21.333333H213.333333V896z m341.333334-789.333333H213.333333v42.666666h341.333334v-42.666666z m-17.066667 38.4l128 128 29.866667-29.866667-128-128-29.866667 29.866667z m128 128l128 128 29.866667-29.866667-128-128-29.866667 29.866667zM832 896V384h-42.666667v512h42.666667zM213.333333 917.333333h597.333334v-42.666666H213.333333v42.666666zM192 128v768h42.666667V128h-42.666667z" fill="#555555" p-id="61748"></path><path d="M618.666667 362.666667h-341.333334v-128h341.333334v128z m-298.666667-42.666667h256v-42.666667h-256v42.666667z" fill="#F9AE55" p-id="61749"></path><path d="M298.666667 256h298.666666v85.333333H298.666667z" fill="#F9AE55" opacity=".5" p-id="61750"></path><path d="M554.666667 128l128 128 128 128h-256V128z" fill="#FFFFFF" p-id="61751"></path><path d="M810.666667 405.333333h-256c-12.8 0-21.333333-8.533333-21.333334-21.333333V128c0-8.533333 4.266667-17.066667 12.8-21.333333 8.533333-4.266667 17.066667 0 21.333334 4.266666l256 256c4.266667 4.266667 8.533333 17.066667 4.266666 21.333334s-8.533333 17.066667-17.066666 17.066666z m-234.666667-42.666666h183.466667l-183.466667-183.466667v183.466667z" fill="#555555" p-id="61752"></path></svg>