<?xml version="1.0" standalone="no"?><!DOCTYPE svg PUBLIC "-//W3C//DTD SVG 1.1//EN" "http://www.w3.org/Graphics/SVG/1.1/DTD/svg11.dtd"><svg t="1755154075255" class="icon" viewBox="0 0 1024 1024" version="1.1" xmlns="http://www.w3.org/2000/svg" p-id="6199" xmlns:xlink="http://www.w3.org/1999/xlink" width="128" height="128"><path d="M187.994353 987.136A81.92 81.92 0 0 1 106.194824 905.336471V86.799059A81.92 81.92 0 0 1 187.934118 4.939294h428.272941c17.046588 0 34.093176 6.866824 46.019765 18.793412l241.664 230.4c11.926588 11.926588 18.793412 28.973176 18.793411 46.019765V905.336471c0 44.333176-37.526588 81.92-81.92 81.92H188.054588z m7.469176-908.408471a22.588235 22.588235 0 0 0-22.166588 22.166589v798.479058c0 11.926588 10.24 22.166588 22.166588 22.166589h636.687059c11.926588 0 22.166588-10.24 22.166588-22.166589V313.584941c0-1.686588 0-1.686588-1.746823-3.373176L612.592941 78.727529c-1.686588-1.686588-1.686588-1.686588-3.373176-1.686588h-413.816471v1.686588z" fill="#515151" p-id="6200"></path><path d="M887.145412 352.617412H638.192941A64.752941 64.752941 0 0 1 573.379765 287.924706V35.659294h64.813176V279.491765c0 1.686588 1.686588 5.12 5.12 5.12h243.832471v68.065882z m-187.572706 257.807059H324.427294a30.539294 30.539294 0 0 1-30.72-30.72c0-17.106824 13.673412-30.72 30.72-30.72h375.145412c17.046588 0 30.72 13.613176 30.72 30.72 0 17.046588-13.673412 30.72-30.72 30.72z" fill="#515151" p-id="6201"></path><path d="M512 797.936941a30.539294 30.539294 0 0 1-30.72-30.72V392.131765c0-17.106824 13.673412-30.72 30.72-30.72 17.046588 0 30.72 13.613176 30.72 30.72v375.145411c0 17.046588-13.673412 30.72-30.72 30.72z" fill="#515151" p-id="6202"></path></svg>