<?xml version="1.0" standalone="no"?><!DOCTYPE svg PUBLIC "-//W3C//DTD SVG 1.1//EN" "http://www.w3.org/Graphics/SVG/1.1/DTD/svg11.dtd"><svg t="1755154443439" class="icon" viewBox="0 0 1024 1024" version="1.1" xmlns="http://www.w3.org/2000/svg" p-id="8482" xmlns:xlink="http://www.w3.org/1999/xlink" width="128" height="128"><path d="M109.970286 0.512h583.241143c10.130286 0 19.748571 4.242286 26.587428 11.702857l191.524572 208.896c6.144 6.656 9.508571 15.396571 9.508571 24.429714v739.035429a36.096 36.096 0 0 1-36.096 36.059429H109.970286a36.096 36.096 0 0 1-36.059429-36.059429V36.571429c0-19.894857 16.164571-36.059429 36.059429-36.059429z m12.032 972.068571h750.701714V250.185143l-184.758857-201.618286H122.038857v923.904l-0.036571 0.036572z" fill="#666666" p-id="8483"></path><path d="M290.450286 972.544H242.249143v-120.32H122.038857v-48.128h120.210286V217.051429H122.038857V168.96h120.210286v-120.32h48.164571v120.32h413.805715V66.450286l48.128 52.516571v49.956572h45.787428l44.141714 48.128h-89.929142v586.971428h120.32v48.164572h-120.32v120.283428h-48.128v-120.173714H290.486857v120.246857h-0.036571z m413.805714-168.448V217.051429H290.486857v586.971428h413.805714v0.073143z" fill="#8D97D8" p-id="8484"></path></svg>