<?xml version="1.0" standalone="no"?><!DOCTYPE svg PUBLIC "-//W3C//DTD SVG 1.1//EN" "http://www.w3.org/Graphics/SVG/1.1/DTD/svg11.dtd"><svg t="1754966862266" class="icon" viewBox="0 0 1024 1024" version="1.1" xmlns="http://www.w3.org/2000/svg" p-id="30077" xmlns:xlink="http://www.w3.org/1999/xlink" width="128" height="128"><path d="M704 896h256l64-128v256H640v-214.208c131.104-56.48 224-197.152 224-361.792 0-214.432-157.6-382.272-352-382.272S160 233.568 160 448c0 164.608 92.896 305.312 224 361.792V1024H0v-256l64 128h256v-32.576C132.384 796.96 0 636.032 0 448 0 200.576 229.216 0 512 0s512 200.576 512 448c0 188-132.384 348.96-320 415.424V896z" fill="#1296db" p-id="30078"></path></svg>