<?xml version="1.0" standalone="no"?><!DOCTYPE svg PUBLIC "-//W3C//DTD SVG 1.1//EN" "http://www.w3.org/Graphics/SVG/1.1/DTD/svg11.dtd"><svg t="1755154540390" class="icon" viewBox="0 0 1024 1024" version="1.1" xmlns="http://www.w3.org/2000/svg" p-id="9577" xmlns:xlink="http://www.w3.org/1999/xlink" width="128" height="128"><path d="M707.669333 213.333333a42.666667 42.666667 0 0 1 30.165334 12.501334l145.664 145.664a42.666667 42.666667 0 0 1 12.501333 30.165333V938.666667a42.666667 42.666667 0 0 1-42.666667 42.666666H298.666667a42.666667 42.666667 0 0 1-42.666667-42.666666V256a42.666667 42.666667 0 0 1 42.666667-42.666667h409.002666zM298.666667 256v682.666667h554.666666V448h-128a64 64 0 0 1-63.701333-57.856L661.333333 384V256H298.666667z m405.333333 128a21.333333 21.333333 0 0 0 17.493333 20.992L725.333333 405.333333h128v-3.669333L707.669333 256H704v128z" fill="#666666" p-id="9578"></path><path d="M896 149.333333a21.333333 21.333333 0 0 1-42.325333 3.84L853.333333 149.333333V128H298.666667v21.333333a21.333333 21.333333 0 0 1-42.325334 3.84L256 149.333333v-85.333333a21.333333 21.333333 0 0 1 42.325333-3.84L298.666667 64V85.333333h554.666666v-21.333333a21.333333 21.333333 0 0 1 42.325334-3.84L896 64v85.333333zM192 213.333333a21.333333 21.333333 0 0 1 3.84 42.325334L192 256H170.666667l-0.042667 682.666667H192a21.333333 21.333333 0 0 1 3.84 42.325333L192 981.333333h-85.333333a21.333333 21.333333 0 0 1-3.84-42.325333L106.666667 938.666667h21.290666L128 255.957333 106.666667 256a21.333333 21.333333 0 0 1-3.84-42.325333L106.666667 213.333333h85.333333z" fill="#257DF8" p-id="9579"></path></svg>