<?xml version="1.0" standalone="no"?><!DOCTYPE svg PUBLIC "-//W3C//DTD SVG 1.1//EN" "http://www.w3.org/Graphics/SVG/1.1/DTD/svg11.dtd"><svg t="1755155763666" class="icon" viewBox="0 0 1024 1024" version="1.1" xmlns="http://www.w3.org/2000/svg" p-id="80712" xmlns:xlink="http://www.w3.org/1999/xlink" width="128" height="128"><path d="M236.8 64h473.088L896 261.12v587.008c0 61.952-54.784 112.128-114.944 112.128H236.8C176.896 960 128 909.824 128 848.128v-672C128 114.176 176.64 64 236.8 64zM672 128v133.888C672 276.224 683.776 288 698.112 288H832L672 128z m106.752 768c29.44 0 53.248-24.576 53.248-54.784V347.392H672c-29.44 0-53.248-24.576-53.248-54.784V128H245.248C215.808 128 192 152.576 192 182.784v658.432C192 871.424 215.808 896 245.248 896h533.504z" fill="#2C2C2C" p-id="80713"></path><path d="M665.088 531.456l-6.144 31.232h-68.608l-16.128 79.36H646.4l-6.144 30.72h-72.704l-22.528 105.728h-36.352L531.2 672.768h-66.56l-22.528 105.728H405.76l22.528-105.728H359.68l6.144-30.72h69.12l16.128-79.36h-72.704l6.144-31.232h72.704l22.272-107.008h36.352l-22.272 107.008h66.56L582.4 424.448h36.352L596.48 531.456h68.608z m-111.104 31.232h-66.56l-16.128 79.36h66.56l16.128-79.36z" fill="#2C2C2C" p-id="80714"></path></svg>