<?xml version="1.0" standalone="no"?><!DOCTYPE svg PUBLIC "-//W3C//DTD SVG 1.1//EN" "http://www.w3.org/Graphics/SVG/1.1/DTD/svg11.dtd"><svg t="1755154703140" class="icon" viewBox="0 0 1038 1024" version="1.1" xmlns="http://www.w3.org/2000/svg" p-id="10650" xmlns:xlink="http://www.w3.org/1999/xlink" width="129.75" height="128"><path d="M975.530333 926.810176V544.062622a26.802348 26.802348 0 0 0-7.890411-18.911937l-14.277887-14.277887L843.64775 400.782779l-14.277887-13.776908a26.927593 26.927593 0 0 0-18.536204-7.389433H243.225049A98.44227 98.44227 0 0 0 145.90998 475.92955v450.880626a97.941292 97.941292 0 0 0 97.315069 97.189824h634.990215A97.565558 97.565558 0 0 0 975.530333 926.810176zM493.213307 400.782779h289.941292a32.563601 32.563601 0 0 0 0 5.009785v137.76908a27.178082 27.178082 0 0 0 27.303327 27.303327h137.76908a32.313112 32.313112 0 0 0 4.88454 0V926.810176a75.898239 75.898239 0 0 1-75.146771 75.146771H243.225049a75.146771 75.146771 0 0 1-75.146771-75.146771V475.92955a75.146771 75.146771 0 0 1 75.146771-75.146771h250.489237z m316.868885 148.039139a5.009785 5.009785 0 0 1-5.009785-5.009785v-137.76908a4.759295 4.759295 0 0 1 4.88454-4.88454 5.761252 5.761252 0 0 1 3.632094 1.377691l137.76908 137.76908a4.88454 4.88454 0 0 1-3.381604 8.391389z" fill="#3B4C5A" p-id="10651"></path><path d="M97.315068 75.146771h399.405089a27.052838 27.052838 0 0 1 18.911937 7.890411l14.277886 14.403131 109.589042 109.463797 14.277886 14.277886a27.553816 27.553816 0 0 1 7.264188 18.536204V400.782779h-21.542074V266.771037a32.563601 32.563601 0 0 1-5.009785 0h-137.76908a27.428571 27.428571 0 0 1-27.303327-27.303327v-137.76908a32.062622 32.062622 0 0 1 0-4.88454H97.315068a76.023483 76.023483 0 0 0-75.146771 75.146771v634.990215a75.146771 75.146771 0 0 0 75.146771 75.146771h71.013699v22.418787H97.315068A98.066536 98.066536 0 0 1 0 806.700587v-634.990215A97.565558 97.565558 0 0 1 97.315068 75.146771z m394.144815 164.821918a5.009785 5.009785 0 0 0 5.009784 4.88454h137.769081a4.88454 4.88454 0 0 0 5.009784-4.88454 4.759295 4.759295 0 0 0-1.502935-3.506849l-137.76908-137.769081a4.759295 4.759295 0 0 0-6.888454 0 4.508806 4.508806 0 0 0-1.502936 3.381605z" fill="#3B4C5A" p-id="10652"></path><path d="M876.712329 64H690.849315v22.293542H876.712329a76.023483 76.023483 0 0 1 75.146771 75.146771v160.187867h22.418786V161.189824A97.690802 97.690802 0 0 0 876.712329 64z" fill="#23896D" p-id="10653"></path><path d="M710.262231 64.626223l49.221135-47.217221a9.894325 9.894325 0 0 0 0-14.403131 10.395303 10.395303 0 0 0-14.528376 0L688.845401 58.489237a22.168297 22.168297 0 0 0 1.127202 33.690802l55.232876 54.105675a11.772994 11.772994 0 0 0 12.524462 2.630137 9.76908 9.76908 0 0 0 6.011742-9.393346 10.395303 10.395303 0 0 0-3.131115-7.264188l-50.097848-47.091976a11.522505 11.522505 0 0 1-0.250489-20.540118zM952.610568 311.733855L905.518591 263.013699a10.019569 10.019569 0 0 0-14.528376 0 10.520548 10.520548 0 0 0 0 14.528375l55.608611 56.109589a22.043053 22.043053 0 0 0 33.565558-1.127201l54.230919-55.232877a11.772994 11.772994 0 0 0 2.504893-12.524462 9.643836 9.643836 0 0 0-9.268102-6.011741 9.894325 9.894325 0 0 0-7.264188 3.131115l-47.217221 50.097847a11.522505 11.522505 0 0 1-20.540117-0.250489z" fill="#23896D" p-id="10654"></path></svg>