<?xml version="1.0" standalone="no"?><!DOCTYPE svg PUBLIC "-//W3C//DTD SVG 1.1//EN" "http://www.w3.org/Graphics/SVG/1.1/DTD/svg11.dtd"><svg t="1755155147090" class="icon" viewBox="0 0 1024 1024" version="1.1" xmlns="http://www.w3.org/2000/svg" p-id="36295" xmlns:xlink="http://www.w3.org/1999/xlink" width="128" height="128"><path d="M57 114v796h910V114H57z m882 768H85V142h854v740z" fill="#323233" p-id="36296"></path><path d="M0 57h142v142H0z" fill="#323233" p-id="36297"></path><path d="M28 85h86v86H28z" fill="#FFFFFF" p-id="36298"></path><path d="M882 57h142v142H882z" fill="#323233" p-id="36299"></path><path d="M910 85h86v86h-86z" fill="#FFFFFF" p-id="36300"></path><path d="M0 825h142v142H0z" fill="#323233" p-id="36301"></path><path d="M28 853h86v86H28z" fill="#FFFFFF" p-id="36302"></path><path d="M882 825h142v142H882z" fill="#323233" p-id="36303"></path><path d="M910 853h86v86h-86z" fill="#FFFFFF" p-id="36304"></path><path d="M570 426.75h284v28H570zM570 596h284v28H570zM199 740h655v28H199z" fill="#323233" p-id="36305"></path><path d="M437.297 546.486H297.7L263.346 661H199l133.054-401.343h73.071L538.178 661h-67.072l-33.809-114.514z m-15.268-49.623l-15.814-53.984c-13.633-43.625-25.629-88.34-38.171-133.6h-2.181c-11.452 45.806-23.993 89.975-37.081 133.6l-16.359 53.984h109.606z" fill="#5789D9" p-id="36306"></path></svg>