<?xml version="1.0" standalone="no"?><!DOCTYPE svg PUBLIC "-//W3C//DTD SVG 1.1//EN" "http://www.w3.org/Graphics/SVG/1.1/DTD/svg11.dtd"><svg t="1754992311338" class="icon" viewBox="0 0 1024 1024" version="1.1" xmlns="http://www.w3.org/2000/svg" p-id="70106" xmlns:xlink="http://www.w3.org/1999/xlink" width="128" height="128"><path d="M482.663334 706.543364l50.995251 50.739315 0.063984 0.415896c0.191952 1.75956 0.511872 3.51912 0.95976 5.150713l-65.807548 65.583604a162.327418 162.327418 0 0 0-26.809297 195.27918h-14.140465c-18.875281 0-34.135466-15.292177-34.135466-34.135466v-167.318171c0-18.875281 15.292177-34.135466 34.135466-34.135466h20.634841c18.875281 0 34.135466-15.292177 34.135466-34.135466l-0.031992-47.444139z m-55.954011-109.636591H174.068483c-18.875281 0-34.135466 15.292177-34.135466 34.135466v122.945264c0 18.875281 15.292177 34.135466 34.135466 34.135466h20.666833c18.875281 0 34.135466 15.260185 34.135466 34.103474v167.318171c0 18.875281-15.260185 34.167458-34.135466 34.167458h-160.59985C15.260185 1023.712072 0 1008.387903 0 989.576606v-167.318171c0-18.875281 15.292177-34.135466 34.135466-34.135466h20.666833c18.875281 0 34.135466-15.292177 34.135467-34.135466V578.735316c0-18.843289 15.292177-34.103474 34.135466-34.103474l307.603099-0.031992c-4.15896 17.147713-5.470632 34.871282-3.967008 52.338915zM651.837041 0c18.875281 0 34.135466 15.292177 34.135466 34.135466V319.28018c0 18.843289-15.292177 34.103474-34.135466 34.103474H567.858035c-18.875281 0-34.135466 15.292177-34.135466 34.135466v42.261435a162.903274 162.903274 0 0 0-51.027243 29.912522v-72.173957c0-18.875281-15.260185-34.135466-34.103474-34.135466h-71.470132c-18.875281 0-34.135466-15.260185-34.135467-34.103474V34.135466c0-18.875281 15.292177-34.135466 34.135467-34.135466h274.747313z" fill="#292E4A" fill-opacity=".4" p-id="70107"></path><path d="M998.022494 532.282929a69.550612 69.550612 0 0 1 0 98.727318l-130.303424 129.567609 135.486129 134.814296a69.550612 69.550612 0 0 1 0 98.695326 70.382404 70.382404 0 0 1-99.207199 0l-135.486128-134.782304-134.270432 133.630592a70.382404 70.382404 0 0 1-99.239191 0 69.550612 69.550612 0 0 1 0-98.695326l134.302425-133.630592-129.11972-128.447888a69.550612 69.550612 0 0 1 0-98.695327 70.382404 70.382404 0 0 1 99.23919 0l129.087728 128.447888 130.271432-129.631592a70.382404 70.382404 0 0 1 99.23919 0z" fill="#F5222D" p-id="70108"></path></svg>